<?xml version="1.0" encoding="UTF-8"?>
<svg width="199px" height="31px" viewBox="0 0 199 31" version="1.1" xmlns="http://www.w3.org/2000/svg" xmlns:xlink="http://www.w3.org/1999/xlink">
    <!-- Generator: Sketch 51.2 (57519) - http://www.bohemiancoding.com/sketch -->
    <title>logo / logo_reverse</title>
    <desc>Created with Sketch.</desc>
    <defs>
        <polygon id="path-1" points="0.0360725076 0.191961538 30.9634381 0.191961538 30.9634381 31 0.0360725076 31"></polygon>
    </defs>
    <g id="logo-/-logo_reverse" stroke="none" stroke-width="1" fill="none" fill-rule="evenodd">
        <g id="Group">
            <g id="Group-3">
                <mask id="mask-2" fill="white">
                    <use xlink:href="#path-1"></use>
                </mask>
                <g id="Clip-2"></g>
                <path d="M15.4276103,0.191961538 C7.62212085,0.191961538 1.16273716,5.90251923 0.0613232628,13.3401346 L5.00926888,13.3401346 C5.90206344,8.50175 9.84298489,5.19965385 15.6151873,5.19965385 C22.4166586,5.19965385 26.662994,9.269 25.8778157,17.3719231 L12.150423,17.3719231 L12.150423,17.3737115 L10.0107221,17.3737115 C10.3401843,19.8066154 12.5249758,21.5605 16.0684985,21.5605 C17.9232266,21.5605 20.3551148,20.8832692 21.5106375,19.7267308 L24.7246979,22.7987115 C22.5807885,24.9544038 19.0769456,25.9911154 15.9861329,25.9911154 C9.70350453,25.9911154 5.71749245,22.6150962 4.95876737,17.3737115 L0,17.3737115 C0.88978852,25.0432308 7.45678852,31 15.4276103,31 C24.0086586,31 30.9634381,24.1030962 30.9634381,15.5959808 C30.9634381,7.08826923 24.0086586,0.191961538 15.4276103,0.191961538" id="Fill-1" fill="#E8872D" mask="url(#mask-2)"></path>
            </g>
            <path d="M21.1841813,13.3705385 C20.8541178,10.8172115 18.7949789,9.53846154 15.9079758,9.53846154 C13.1881088,9.53846154 10.962435,10.8172115 10.2205438,13.3705385 L21.1841813,13.3705385" id="Fill-4" fill="#E8872D"></path>
            <path d="M76.2897462,23.6989038 C77.9124079,23.6989038 79.230858,22.3992885 79.230858,20.7926538 C79.230858,19.1878077 77.9124079,17.8846154 76.2897462,17.8846154 C74.6658822,17.8846154 73.347432,19.1878077 73.347432,20.7926538 C73.347432,22.3992885 74.6658822,23.6989038 76.2897462,23.6989038" id="Fill-5" fill="#E8872D"></path>
            <path d="M162.861961,23.6989038 C164.487027,23.6989038 165.802471,22.3992885 165.802471,20.7926538 C165.802471,19.1878077 164.487027,17.8846154 162.861961,17.8846154 C161.238698,17.8846154 159.92145,19.1878077 159.92145,20.7926538 C159.92145,22.3992885 161.238698,23.6989038 162.861961,23.6989038" id="Fill-6" fill="#E8872D"></path>
            <path d="M59.5761511,18.7848077 C59.5761511,18.4980577 59.5466918,18.2125 59.5466918,17.9555577 L53.7841088,17.9555577 C53.7841088,20.5583654 52.5083444,20.7324423 50.5099275,20.7324423 C49.4968912,20.7324423 48.5115106,20.7586731 47.4984743,20.7586731 L45.2114773,20.7032308 C41.0102326,20.5863846 40.8088278,19.5568269 40.8088278,15.6639423 C40.8088278,12.0584038 40.8370846,10.6854615 44.659568,10.6544615 L47.644568,10.6264423 L49.2636224,10.6264423 C49.8143293,10.6264423 50.3638338,10.6264423 50.9157432,10.6544615 C52.6249789,10.7385192 53.6392175,11.0008269 53.6392175,12.8584423 L59.3434834,12.8584423 C59.2563082,9.45261538 58.7056012,6.64830769 54.6823142,6.21967308 C52.2786828,5.96153846 49.8425861,5.96153846 47.4389547,5.96153846 C45.6148882,5.96153846 43.7613625,5.96153846 41.9366949,6.10342308 C35.7694985,6.53325 34.8700906,9.62490385 34.8700906,15.1774808 C34.8700906,16.5235962 34.9278066,17.8405 35.0420363,19.1842308 C35.4773112,25.1684231 39.2727402,25.3120962 44.1966375,25.3663462 L47.8453716,25.4247692 C49.3526012,25.4247692 50.828568,25.3943654 52.333994,25.3383269 C58.0406647,25.1088077 59.5761511,24.1078654 59.5761511,18.7848077 Z M83.995435,25.2256538 L90.4217523,25.2256538 L79.8783595,6.13382692 L71.9418066,6.13382692 L61.1675498,25.2256538 L67.6876556,25.2256538 L71.7061329,17.8112885 L71.683287,17.8112885 L73.771284,13.9976923 L75.8238097,10.2079423 L79.4935861,16.9516346 L79.966136,17.8112885 L79.9619275,17.8112885 L83.995435,25.2256538 Z M110.203314,13.3741154 C110.203314,15.4636346 109.187873,15.8362308 107.161801,15.8362308 L98.617426,15.8362308 L98.617426,10.7677308 L107.074625,10.7677308 C109.216731,10.7677308 110.203314,11.1140962 110.203314,13.3741154 Z M116.139045,13.1732115 C116.139045,7.36369231 113.939825,6.13382692 108.378045,6.13382692 L92.737006,6.13382692 L92.737006,25.2256538 L98.617426,25.2256538 L98.617426,20.4731154 L109.305109,20.4731154 C115.242644,20.4731154 116.139045,18.0950577 116.139045,13.1732115 Z M119.122242,25.2256538 L125.001459,25.2256538 L125.001459,6.13382692 L119.122242,6.13382692 L119.122242,25.2256538 Z M142.784604,10.9137885 L151.387296,10.9137885 L151.387296,6.13382692 L128.277444,6.13382692 L128.277444,10.9137885 L136.904785,10.9137885 L136.904785,25.2256538 L142.784604,25.2256538 L142.784604,10.9137885 Z M170.756429,25.2256538 L177.192366,25.2256538 L166.651378,6.13382692 L158.714825,6.13382692 L147.941169,25.2256538 L154.454662,25.2256538 L158.473139,17.8112885 L158.454502,17.8112885 L159.967142,15.0552692 L162.590215,10.2133077 L164.900659,14.4561346 L166.738553,17.8112885 L166.723523,17.8112885 L168.872242,21.7608077 L168.88126,21.7608077 L169.133767,22.2425 L170.756429,25.2256538 Z M198.74148,25.2256538 L198.74148,20.4439038 L185.391045,20.4439038 L185.391045,6.13382692 L179.510625,6.13382692 L179.510625,25.2256538 L198.74148,25.2256538 Z" id="Fill-7" fill="#FFFFFF"></path>
        </g>
    </g>
</svg>